<?xml version="1.0" encoding="utf-8"?>
<!-- Generator: Adobe Illustrator 21.0.2, SVG Export Plug-In . SVG Version: 6.00 Build 0)  -->
<svg version="1.1" id="Layer_1" xmlns="http://www.w3.org/2000/svg" xmlns:xlink="http://www.w3.org/1999/xlink" x="0px" y="0px"
	 viewBox="0 0 500 500" style="enable-background:new 0 0 500 500;" xml:space="preserve">
<style type="text/css">
	.st0{fill:#146354;}
	.st1{fill:#BCDA60;}
	.st2{fill:#00C787;}
	.st3{fill:#919191;}
	.st4{fill:#819B13;}
	.st5{clip-path:url(#SVGID_2_);}
	.st6{fill:#FD794B;}
	.st7{fill:#F8CE45;}
	.st8{fill:#CE4B28;}
	.st9{fill:#B1B1B5;}
</style>
<g id="Plants">
	<g>
		<path class="st0" d="M233.8,106.3c0,0-62.6,15.1-81.3,83.8c0,0-64.9-43-112.1-7.1c0,0,76.1-24.7,141.6,132
			C182.1,315,199.8,126.2,233.8,106.3z"/>
	</g>
	<g>
		<path class="st1" d="M418.4,150.8c0,0-15.6,2.6-34.7,11.8l-1.6,19.2l-10.6-12.6c-30.9,18.7-64.3,55-57.2,123.8l8.5,39.3
			C482,274.3,418.4,150.8,418.4,150.8z"/>
	</g>
	<g>
		<path class="st2" d="M239.5,129.3c0,0-8.2,10.1-14.9,26.1l9.5,12.7l-13.4-2c-8.8,28.3-9.7,68.8,32.1,107.3l26.6,19.6
			C345.7,170.8,239.5,129.3,239.5,129.3z"/>
	</g>
	<g>
		<path class="st2" d="M67.8,218.4c0,0,16.1-3.8,38.3-2.7l9.4,17.9l5.1-16.5c37.4,5.5,84.5,27,105.5,96.2l7.8,41.4
			C56.6,363.4,67.8,218.4,67.8,218.4z"/>
	</g>
	<g>
		<path class="st0" d="M274.1,226.8c0,0,39.2-52.1-9.2-109c0,0,62.2,4.4,62.6,118.3c0,0,46-29.6,103.5,2.9c0,0-94.7-13.4-106.8,86.3
			l-52.5,12.9L274.1,226.8z"/>
	</g>
	<g>
		<path class="st2" d="M280.4,330.2c0,0-1.7-44.4,16.6-48.6c18.2-4.2,17.3,37.5,27,30.3c9.7-7.3-16-42.7-4.5-60.5s21.2,32.4,33,26.3
			s18.8-42.7,33.9-38.1c15.1,4.5,3.6,41.8,12.4,51.5s37.5,10.6,32.2,22.4s-37.4,2.7-39.8,14.8c-2.4,12.1,49,7.9,42.1,22.7
			c-7,14.8-38.1,50.3-82.9,50.3s-76.3,0-76.3,0L280.4,330.2z"/>
	</g>
	<g>
		<path class="st1" d="M220.3,306.4c0,0-119.3,43-133.2-70.2c0,0-79.9,131,59.3,165.1h97.9L220.3,306.4z"/>
	</g>
</g>
<g id="Cactus">
	<g>
		<path class="st3" d="M343.4,401.2h-36.7c0,0,3.4-16.5,12.2-17.4c8.8-0.9,10.2-3.6,14.6-3.6S349.7,390.5,343.4,401.2z"/>
	</g>
	<g>
		<ellipse class="st4" cx="233.8" cy="255.7" rx="63.2" ry="74.5"/>
	</g>
	<g>
		<g>
			<g>
				<defs>
					<ellipse id="SVGID_1_" cx="233.8" cy="255.7" rx="63.2" ry="74.5"/>
				</defs>
				<clipPath id="SVGID_2_">
					<use xlink:href="#SVGID_1_"  style="overflow:visible;"/>
				</clipPath>
				<g class="st5">
					<g>
						<g>
							<path class="st6" d="M297,291.6c-1.3,3.4-2,5.1-3.4,8.6c-2.4,5.9-3.7,8.8-6.4,14.8c-37.1,17-69.8,17-106.8,0
								c-2.7-6-4-9-6.4-14.8c-1.4-3.5-2.1-5.2-3.4-8.6C213.6,304.1,254.1,304.1,297,291.6z"/>
						</g>
						<g>
							<path class="st7" d="M172.4,198.1c-0.1,0-0.3,0-0.4-0.1c-0.8-0.2-1.3-1.1-1-1.9c1.9-6.4,2.9-9.8,5.4-16.4
								c0.3-0.8,1.2-1.2,1.9-0.9c0.8,0.3,1.2,1.2,0.9,1.9c-2.5,6.5-3.5,9.9-5.4,16.2C173.6,197.7,173,198.1,172.4,198.1z"/>
						</g>
						<g>
							<path class="st7" d="M187.5,210.7c-0.1,0-0.1,0-0.2,0c-0.8-0.1-1.4-0.9-1.3-1.7c0.9-7.5,1.5-11.1,2.8-18.2
								c0.1-0.8,0.9-1.4,1.7-1.2c0.8,0.1,1.4,0.9,1.2,1.7c-1.3,7-1.9,10.6-2.8,18C188.9,210.1,188.2,210.7,187.5,210.7z"/>
						</g>
						<g>
							<path class="st7" d="M206.6,189.3c-0.1,0-0.1,0-0.2,0c-0.8-0.1-1.4-0.8-1.3-1.6c0.8-7.6,1.3-11.3,2.4-19.3
								c0.1-0.8,0.9-1.4,1.7-1.3c0.8,0.1,1.4,0.9,1.3,1.7c-1.1,7.9-1.6,11.6-2.4,19.1C208,188.7,207.4,189.3,206.6,189.3z"/>
						</g>
						<g>
							<path class="st7" d="M223.8,207.1C223.8,207.1,223.8,207.1,223.8,207.1c-0.9,0-1.5-0.7-1.5-1.5l0-0.3
								c0.2-7.8,0.3-11.7,0.6-19.5c0-0.8,0.7-1.5,1.6-1.4c0.8,0,1.5,0.7,1.4,1.6c-0.3,7.8-0.4,11.7-0.6,19.5l0,0.3
								C225.3,206.5,224.6,207.1,223.8,207.1z"/>
						</g>
						<g>
							<path class="st7" d="M243.3,187.4c-0.8,0-1.5-0.6-1.5-1.4c-0.1-2.2-0.1-4-0.2-5.7c-0.2-4.6-0.3-8.3-0.6-14
								c0-0.8,0.6-1.5,1.4-1.6c0.8,0,1.5,0.6,1.6,1.4c0.3,5.8,0.4,9.4,0.6,14.1c0.1,1.7,0.1,3.6,0.2,5.7
								C244.8,186.7,244.2,187.4,243.3,187.4C243.3,187.4,243.3,187.4,243.3,187.4z"/>
						</g>
						<g>
							<path class="st7" d="M262.8,208.4c-0.8,0-1.4-0.6-1.5-1.4c-0.5-7.6-0.9-11.3-1.7-18.8l0-0.3c-0.1-0.8,0.5-1.6,1.3-1.6
								c0.8-0.1,1.6,0.5,1.6,1.3l0,0.3c0.8,7.5,1.2,11.3,1.7,18.9C264.4,207.6,263.7,208.3,262.8,208.4
								C262.9,208.4,262.8,208.4,262.8,208.4z"/>
						</g>
						<g>
							<path class="st7" d="M277.4,192.7c-0.7,0-1.3-0.5-1.5-1.2c-1.3-7.4-2.1-11-3.8-18c-0.2-0.8,0.3-1.6,1.1-1.8
								c0.8-0.2,1.6,0.3,1.8,1.1c1.7,7.1,2.5,10.7,3.8,18.2c0.1,0.8-0.4,1.6-1.2,1.7C277.6,192.7,277.5,192.7,277.4,192.7z"/>
						</g>
						<g>
							<path class="st7" d="M299.1,214.3c-0.7,0-1.3-0.5-1.5-1.2c-1.3-6.3-1.9-9.6-3.9-16.2c-0.2-0.8,0.2-1.6,1-1.9
								c0.8-0.2,1.6,0.2,1.9,1c2,6.7,2.7,10.1,3.9,16.4c0.2,0.8-0.4,1.6-1.2,1.8C299.3,214.3,299.2,214.3,299.1,214.3z"/>
						</g>
						<g>
							<path class="st7" d="M166.2,230.6c-0.1,0-0.1,0-0.2,0c-0.8-0.1-1.4-0.8-1.3-1.7c0.7-6.3,1.2-9.7,2.4-16.4
								c0.1-0.8,0.9-1.4,1.7-1.2c0.8,0.2,1.4,0.9,1.2,1.7c-1.2,6.7-1.7,9.9-2.4,16.2C167.6,230,167,230.6,166.2,230.6z"/>
						</g>
						<g>
							<path class="st7" d="M185.2,246.7c-0.8,0-1.5-0.7-1.5-1.5c0-7.1,0.1-10.8,0.6-18.2c0.1-0.8,0.8-1.4,1.6-1.4
								c0.8,0.1,1.4,0.8,1.4,1.6c-0.5,7.3-0.6,10.9-0.6,18C186.7,246,186,246.7,185.2,246.7z"/>
						</g>
						<g>
							<path class="st7" d="M203.9,227.5C203.9,227.5,203.9,227.5,203.9,227.5c-0.9,0-1.5-0.7-1.5-1.5c0.2-7.7,0.4-11.5,1-19.3
								c0.1-0.8,0.8-1.4,1.6-1.4c0.8,0.1,1.4,0.8,1.4,1.6c-0.6,7.7-0.8,11.5-1,19.1C205.4,226.9,204.7,227.5,203.9,227.5z"/>
						</g>
						<g>
							<path class="st7" d="M223.3,246.5c-0.8,0-1.5-0.7-1.5-1.5c0-7.9,0-11.9,0.1-19.8c0-0.8,0.7-1.5,1.5-1.5c0,0,0,0,0,0
								c0.8,0,1.5,0.7,1.5,1.5c-0.1,7.9-0.1,11.9-0.1,19.8C224.8,245.8,224.1,246.5,223.3,246.5z"/>
						</g>
						<g>
							<path class="st7" d="M244.3,226.9c-0.8,0-1.5-0.7-1.5-1.5c-0.1-8-0.2-12.2-0.4-19.8c0-0.8,0.6-1.5,1.5-1.5
								c0.8,0,1.5,0.6,1.5,1.5c0.2,7.6,0.3,11.8,0.4,19.8C245.8,226.2,245.1,226.9,244.3,226.9C244.3,226.9,244.3,226.9,244.3,226.9
								z"/>
						</g>
						<g>
							<path class="st7" d="M264.2,246.6c-0.8,0-1.5-0.7-1.5-1.5c0-7.6-0.1-11.4-0.4-19.1c0-0.8,0.6-1.5,1.4-1.6
								c0.9,0,1.5,0.6,1.6,1.4c0.3,7.7,0.4,11.6,0.4,19.3C265.7,245.9,265,246.6,264.2,246.6z"/>
						</g>
						<g>
							<path class="st7" d="M281.8,228.7c-0.8,0-1.4-0.6-1.5-1.4c-0.5-7.6-0.8-11-1.7-18c-0.1-0.8,0.5-1.6,1.3-1.7
								c0.8-0.1,1.6,0.5,1.7,1.3c0.9,7.4,1.2,11.1,1.7,18.2c0.1,0.8-0.6,1.5-1.4,1.6C281.9,228.7,281.8,228.7,281.8,228.7z"/>
						</g>
						<g>
							<path class="st7" d="M302.3,246.8c-0.8,0-1.5-0.7-1.5-1.5c-0.1-6.7-0.3-9.9-0.9-16.2c-0.1-0.8,0.5-1.6,1.4-1.6
								c0.8-0.1,1.6,0.5,1.6,1.4c0.6,6.3,0.8,9.7,0.9,16.4C303.8,246.1,303.2,246.8,302.3,246.8
								C302.3,246.8,302.3,246.8,302.3,246.8z"/>
						</g>
						<g>
							<path class="st7" d="M166.1,263c-0.8,0-1.4-0.6-1.5-1.4c-0.6-6.5-0.7-9.8-0.7-16.4c0-0.8,0.7-1.5,1.5-1.5s1.5,0.7,1.5,1.5
								c0,6.5,0.1,9.7,0.7,16.2c0.1,0.8-0.5,1.6-1.4,1.6C166.2,263,166.1,263,166.1,263z"/>
						</g>
						<g>
							<path class="st7" d="M187.2,282.7c-0.8,0-1.4-0.6-1.5-1.3c-0.8-7.4-1.1-11-1.5-18.2c0-0.8,0.6-1.5,1.4-1.6
								c0.8,0,1.5,0.6,1.6,1.4c0.4,7.2,0.7,10.7,1.5,18c0.1,0.8-0.5,1.6-1.3,1.7C187.3,282.7,187.3,282.7,187.2,282.7z"/>
						</g>
						<g>
							<path class="st7" d="M203.7,265.8c-0.8,0-1.5-0.6-1.5-1.4c-0.3-7.7-0.3-11.6-0.3-19.3c0-0.8,0.7-1.5,1.5-1.5s1.5,0.7,1.5,1.5
								c0,7.6,0,11.5,0.3,19.1C205.2,265.1,204.6,265.8,203.7,265.8C203.7,265.8,203.7,265.8,203.7,265.8z"/>
						</g>
						<g>
							<path class="st7" d="M223.7,286c-0.8,0-1.5-0.7-1.5-1.5c0-3.9-0.1-6.9-0.1-9.9c-0.1-3-0.1-6-0.2-9.9c0-0.8,0.7-1.5,1.5-1.5
								c0.8,0,1.5,0.7,1.5,1.5c0,3.9,0.1,6.9,0.1,9.9c0.1,3,0.1,6,0.2,9.9C225.2,285.3,224.5,286,223.7,286
								C223.7,286,223.7,286,223.7,286z"/>
						</g>
						<g>
							<path class="st7" d="M244.3,266.3C244.3,266.3,244.3,266.3,244.3,266.3c-0.8,0-1.5-0.7-1.5-1.5c0.1-7.9,0.1-11.9,0.1-19.8
								c0-0.8,0.7-1.5,1.5-1.5s1.5,0.7,1.5,1.5c0,7.9,0,11.9-0.1,19.8C245.8,265.6,245.1,266.3,244.3,266.3z"/>
						</g>
						<g>
							<path class="st7" d="M262.9,284.8c0,0-0.1,0-0.1,0c-0.8-0.1-1.4-0.8-1.4-1.6c0.6-7.7,0.8-11.5,1-19.1c0-0.8,0.7-1.5,1.5-1.5
								c0.8,0,1.5,0.7,1.5,1.5c-0.2,7.7-0.4,11.5-1,19.3C264.3,284.2,263.7,284.8,262.9,284.8z"/>
						</g>
						<g>
							<path class="st7" d="M281.9,264.7C281.9,264.7,281.8,264.7,281.9,264.7c-0.9,0-1.5-0.8-1.5-1.6c0.4-7.3,0.5-10.8,0.5-18
								c0-0.8,0.7-1.5,1.5-1.5s1.5,0.7,1.5,1.5c0,7.2-0.1,10.8-0.5,18.2C283.4,264.1,282.7,264.7,281.9,264.7z"/>
						</g>
						<g>
							<path class="st7" d="M299.4,279.2c-0.1,0-0.2,0-0.3,0c-0.8-0.2-1.4-0.9-1.2-1.7c1.2-6.4,1.6-9.6,2.2-16.2
								c0.1-0.8,0.8-1.4,1.6-1.4c0.8,0.1,1.4,0.8,1.4,1.6c-0.6,6.6-1,9.9-2.2,16.4C300.7,278.7,300.1,279.2,299.4,279.2z"/>
						</g>
						<g>
							<path class="st7" d="M171.9,295.5c-0.7,0-1.3-0.4-1.4-1.1c-1.8-6.5-2.5-9.8-3.7-16.4c-0.2-0.8,0.4-1.6,1.2-1.7
								c0.8-0.2,1.6,0.4,1.7,1.2c1.2,6.6,1.9,9.8,3.7,16.2c0.2,0.8-0.2,1.6-1,1.8C172.2,295.5,172,295.5,171.9,295.5z"/>
						</g>
						<g>
							<path class="st7" d="M193.5,318.7c-0.7,0-1.3-0.5-1.5-1.2c-1.8-7.5-2.4-11.1-3.7-18.2c-0.1-0.8,0.4-1.6,1.2-1.7
								c0.8-0.1,1.6,0.4,1.7,1.2c1.3,7,1.9,10.6,3.7,18c0.2,0.8-0.3,1.6-1.1,1.8C193.7,318.7,193.6,318.7,193.5,318.7z"/>
						</g>
						<g>
							<path class="st7" d="M206.3,304c-0.8,0-1.4-0.6-1.5-1.3c-0.8-7.8-1.1-11.6-1.6-19.3c-0.1-0.8,0.6-1.5,1.4-1.6
								c0.8-0.1,1.5,0.6,1.6,1.4c0.5,7.6,0.8,11.4,1.6,19.1c0.1,0.8-0.5,1.6-1.3,1.6C206.4,304,206.3,304,206.3,304z"/>
						</g>
						<g>
							<path class="st7" d="M225.1,325.4c-0.8,0-1.5-0.6-1.5-1.4c-0.3-5.8-0.4-9.4-0.6-14.1c-0.1-1.7-0.1-3.6-0.2-5.8
								c0-0.8,0.6-1.5,1.4-1.6c0.8,0,1.5,0.6,1.6,1.4c0.1,2.2,0.1,4,0.2,5.8c0.2,4.6,0.3,8.3,0.6,14
								C226.6,324.7,226,325.4,225.1,325.4C225.1,325.4,225.1,325.4,225.1,325.4z"/>
						</g>
						<g>
							<path class="st7" d="M243.3,305.8C243.3,305.8,243.3,305.8,243.3,305.8c-0.9,0-1.5-0.7-1.5-1.6c0.3-7.8,0.4-11.7,0.6-19.5
								l0-0.2c0-0.8,0.7-1.5,1.5-1.5c0.8,0,1.5,0.7,1.5,1.5l0,0.2c-0.2,7.8-0.3,11.8-0.6,19.6C244.8,305.2,244.1,305.8,243.3,305.8z
								"/>
						</g>
						<g>
							<path class="st7" d="M259,323c-0.1,0-0.1,0-0.2,0c-0.8-0.1-1.4-0.9-1.3-1.7c1.1-7.8,1.5-11.6,2.3-19.1
								c0.1-0.8,0.8-1.4,1.6-1.3c0.8,0.1,1.4,0.8,1.3,1.6c-0.8,7.3-1.2,11.4-2.3,19.3C260.4,322.5,259.7,323,259,323z"/>
						</g>
						<g>
							<path class="st7" d="M277.8,300.7c-0.1,0-0.2,0-0.3,0c-0.8-0.1-1.4-0.9-1.2-1.7c1.3-7.5,1.8-11.1,2.6-18
								c0.1-0.8,0.8-1.4,1.7-1.3c0.8,0.1,1.4,0.8,1.3,1.7c-0.8,7-1.3,10.6-2.6,18.2C279.1,300.2,278.5,300.7,277.8,300.7z"/>
						</g>
						<g>
							<path class="st7" d="M290.6,311.7c-0.2,0-0.3,0-0.5-0.1c-0.8-0.3-1.2-1.1-0.9-1.9c2.3-6.3,3.3-9.6,5.2-16.2
								c0.2-0.8,1-1.3,1.8-1c0.8,0.2,1.3,1,1,1.8c-1.9,6.7-2.9,10-5.2,16.4C291.8,311.3,291.2,311.7,290.6,311.7z"/>
						</g>
					</g>
				</g>
			</g>
		</g>
		<g>
			<polygon class="st6" points="181.7,325.3 286,325.3 277,401.2 190.6,401.2 			"/>
		</g>
		<g>
			<polygon class="st8" points="286.9,317.3 286,325.3 181.7,325.3 180.7,317.3 			"/>
		</g>
		<g>
			<path class="st6" d="M313.4,306.4c0,1.4-0.3,2.8-0.8,4c-0.5,1.4-1.4,2.6-2.4,3.7c-2,2-4.7,3.2-7.7,3.2H165.2
				c-4.6,0-8.5-2.8-10.1-6.9c-0.5-1.2-0.8-2.6-0.8-4c0-3,1.2-5.7,3.2-7.7s4.7-3.2,7.7-3.2h137.3
				C308.5,295.5,313.4,300.3,313.4,306.4z"/>
		</g>
	</g>
	<g>
		<path class="st3" d="M136.3,401.2h66.4c0,0-6.1-29.9-22-31.5s-18.4-6.5-26.4-6.5S124.8,381.8,136.3,401.2z"/>
	</g>
	<g>
		<path class="st9" d="M145.5,401.2h-36.7c0,0,3.4-16.5,12.2-17.4s10.2-3.6,14.6-3.6C140,380.2,151.9,390.5,145.5,401.2z"/>
	</g>
	<g>
		<path class="st9" d="M268.5,401.2c0,0-1.4-30.7,17.5-32.3c18.8-1.6,21.7,13.3,31.4,13.3c9.7,0,19.4,12.9,17,19H268.5z"/>
	</g>
</g>
<g id="Stars">
	<g>
		<g>
			<path class="st7" d="M156.7,120.7c-11.8,4.7-15.6,8.5-20.3,20.3c-4.7-11.8-8.5-15.6-20.3-20.3c11.8-4.7,15.6-8.5,20.3-20.3
				C141,112.2,144.8,116,156.7,120.7z"/>
		</g>
	</g>
	<g>
		<g>
			<path class="st7" d="M486.3,325.3c-11.8,4.7-15.6,8.5-20.3,20.3c-4.7-11.8-8.5-15.6-20.3-20.3c11.8-4.7,15.6-8.5,20.3-20.3
				C470.6,316.8,474.5,320.6,486.3,325.3z"/>
		</g>
	</g>
	<g>
		<g>
			<path class="st7" d="M60.8,270.1c-11.8,4.7-15.6,8.5-20.3,20.3c-4.7-11.8-8.5-15.6-20.3-20.3c11.8-4.7,15.6-8.5,20.3-20.3
				C45.2,261.6,49,265.4,60.8,270.1z"/>
		</g>
	</g>
	<g>
		<g>
			<path class="st7" d="M29,247.9c-5.2,2-6.8,3.7-8.9,8.9c-2-5.2-3.7-6.8-8.9-8.9c5.2-2,6.8-3.7,8.9-8.9
				C22.2,244.2,23.8,245.8,29,247.9z"/>
		</g>
	</g>
	<g>
		<g>
			<path class="st7" d="M328.5,129.3c-5.2,2-6.8,3.7-8.9,8.9c-2-5.2-3.7-6.8-8.9-8.9c5.2-2,6.8-3.7,8.9-8.9
				C321.7,125.6,323.3,127.3,328.5,129.3z"/>
		</g>
	</g>
	<g>
		<g>
			<path class="st7" d="M489.3,295.5c-5.2,2-6.8,3.7-8.9,8.9c-2-5.2-3.7-6.8-8.9-8.9c5.2-2,6.8-3.7,8.9-8.9
				C482.5,291.8,484.2,293.4,489.3,295.5z"/>
		</g>
	</g>
</g>
</svg>
