<?xml version="1.0" encoding="utf-8"?>
<!-- Generator: Adobe Illustrator 21.0.2, SVG Export Plug-In . SVG Version: 6.00 Build 0)  -->
<svg version="1.1" xmlns="http://www.w3.org/2000/svg" xmlns:xlink="http://www.w3.org/1999/xlink" x="0px" y="0px"
	 viewBox="0 0 500 500" style="enable-background:new 0 0 500 500;" xml:space="preserve">
<style type="text/css">
	.st0{fill:#146354;}
	.st1{fill:#BCDA60;}
	.st2{fill:#00C787;}
	.st3{fill:#919191;}
	.st4{fill:#819B13;}
	.st5{clip-path:url(#SVGID_2_);}
	.st6{fill:#FD794B;}
	.st7{fill:none;stroke:#F8CE45;stroke-width:3;stroke-linecap:round;stroke-miterlimit:10;}
	.st8{fill:#CE4B28;}
	.st9{fill:#B1B1B5;}
	.st10{fill:#F8CE45;}
</style>
<g id="Plants">
	<path class="st0" d="M233.8,106.3c0,0-62.6,15.1-81.3,83.8c0,0-64.9-43-112.1-7.1c0,0,76.1-24.7,141.6,132
		C182.1,315,199.8,126.2,233.8,106.3z"/>
	<path class="st1" d="M418.4,150.8c0,0-15.6,2.6-34.7,11.8l-1.6,19.2l-10.6-12.6c-30.9,18.7-64.3,55-57.2,123.8l8.5,39.3
		C482,274.3,418.4,150.8,418.4,150.8z"/>
	<path class="st2" d="M239.5,129.3c0,0-8.2,10.1-14.9,26.1l9.5,12.7l-13.4-2c-8.8,28.3-9.7,68.8,32.1,107.3l26.6,19.6
		C345.7,170.8,239.5,129.3,239.5,129.3z"/>
	<path class="st2" d="M67.8,218.4c0,0,16.1-3.8,38.3-2.7l9.4,17.9l5.1-16.5c37.4,5.5,84.5,27,105.5,96.2l7.8,41.4
		C56.6,363.4,67.8,218.4,67.8,218.4z"/>
	<path class="st0" d="M274.1,226.8c0,0,39.2-52.1-9.2-109c0,0,62.2,4.4,62.6,118.3c0,0,46-29.6,103.5,2.9c0,0-94.7-13.4-106.8,86.3
		l-52.5,12.9L274.1,226.8z"/>
	<path class="st2" d="M280.4,330.2c0,0-1.7-44.4,16.6-48.6c18.2-4.2,17.3,37.5,27,30.3c9.7-7.3-16-42.7-4.5-60.5s21.2,32.4,33,26.3
		c11.8-6.1,18.8-42.7,33.9-38.1c15.1,4.5,3.6,41.8,12.4,51.5c8.8,9.7,37.5,10.6,32.2,22.4c-5.3,11.8-37.4,2.7-39.8,14.8
		c-2.4,12.1,49,7.9,42.1,22.7c-7,14.8-38.1,50.3-82.9,50.3s-76.3,0-76.3,0L280.4,330.2z"/>
	<path class="st1" d="M220.3,306.4c0,0-119.3,43-133.2-70.2c0,0-79.9,131,59.3,165.1h97.9L220.3,306.4z"/>
</g>
<g id="Cactus">
	<path class="st3" d="M343.4,401.2h-36.7c0,0,3.4-16.5,12.2-17.4c8.8-0.9,10.2-3.6,14.6-3.6C337.9,380.2,349.7,390.5,343.4,401.2z"
		/>
	<ellipse class="st4" cx="233.8" cy="255.7" rx="63.2" ry="74.5"/>
	<g>
		<g>
			<defs>
				<ellipse id="SVGID_1_" cx="233.8" cy="255.7" rx="63.2" ry="74.5"/>
			</defs>
			<clipPath id="SVGID_2_">
				<use xlink:href="#SVGID_1_"  style="overflow:visible;"/>
			</clipPath>
			<g class="st5">
				<g>
					<path class="st6" d="M297,291.6c-1.3,3.4-2,5.1-3.4,8.6c-2.4,5.9-3.7,8.8-6.4,14.8c-37.1,17-69.8,17-106.8,0
						c-2.7-6-4-9-6.4-14.8c-1.4-3.5-2.1-5.2-3.4-8.6C213.6,304.1,254.1,304.1,297,291.6z"/>
					<path class="st7" d="M177.8,180.3c-2.5,6.5-3.5,9.8-5.4,16.3"/>
					<path class="st7" d="M190.3,191.1c-1.3,7.2-1.9,10.8-2.8,18.1"/>
					<path class="st7" d="M209,168.6c-1.1,7.7-1.6,11.5-2.4,19.2"/>
					<path class="st7" d="M224.4,185.8c-0.3,7.9-0.4,11.9-0.6,19.8"/>
					<path class="st7" d="M242.5,166.1c0.4,7.9,0.5,11.9,0.8,19.8"/>
					<path class="st7" d="M261.1,187.7c0.8,7.7,1.2,11.5,1.7,19.2"/>
					<path class="st7" d="M273.6,173.1c1.7,7.2,2.5,10.8,3.8,18.1"/>
					<path class="st7" d="M295.2,196.5c1.9,6.5,2.6,9.8,3.9,16.3"/>
					<path class="st7" d="M168.6,212.8c-1.2,6.5-1.7,9.8-2.4,16.3"/>
					<path class="st7" d="M185.8,227.1c-0.5,7.2-0.6,10.8-0.6,18.1"/>
					<path class="st7" d="M204.9,206.8c-0.6,7.7-0.8,11.5-1,19.2"/>
					<path class="st7" d="M223.4,225.2c-0.1,7.9-0.1,11.9-0.1,19.8"/>
					<path class="st7" d="M243.9,205.6c0.2,7.9,0.3,11.9,0.4,19.8"/>
					<path class="st7" d="M263.8,225.9c0.3,7.7,0.4,11.5,0.4,19.2"/>
					<path class="st7" d="M280.1,209.1c0.9,7.2,1.2,10.8,1.7,18.1"/>
					<path class="st7" d="M301.4,229c0.6,6.5,0.8,9.8,0.9,16.3"/>
					<path class="st7" d="M165.4,245.2c0,6.5,0.1,9.8,0.7,16.3"/>
					<path class="st7" d="M185.7,263.1c0.4,7.2,0.7,10.8,1.5,18.1"/>
					<path class="st7" d="M203.4,245.1c0,7.7,0,11.5,0.3,19.2"/>
					<path class="st7" d="M223.4,264.7c0.1,7.9,0.2,11.9,0.3,19.8"/>
					<path class="st7" d="M244.4,245c0,7.9,0,11.9-0.1,19.8"/>
					<path class="st7" d="M263.9,264.1c-0.2,7.7-0.4,11.5-1,19.2"/>
					<path class="st7" d="M282.4,245.1c0,7.2-0.1,10.8-0.5,18.1"/>
					<path class="st7" d="M301.6,261.4c-0.6,6.5-1,9.8-2.2,16.3"/>
					<path class="st7" d="M168.2,277.7c1.2,6.5,1.9,9.8,3.7,16.3"/>
					<path class="st7" d="M189.8,299.1c1.3,7.2,2,10.8,3.7,18.1"/>
					<path class="st7" d="M204.7,283.3c0.5,7.7,0.8,11.5,1.6,19.2"/>
					<path class="st7" d="M224.3,304.1c0.3,7.9,0.4,11.9,0.8,19.8"/>
					<path class="st7" d="M243.9,284.5c-0.2,7.9-0.3,11.9-0.6,19.8"/>
					<path class="st7" d="M261.3,302.3c-0.8,7.7-1.2,11.5-2.3,19.2"/>
					<path class="st7" d="M280.4,281.1c-0.8,7.2-1.3,10.8-2.6,18.1"/>
					<path class="st7" d="M295.8,293.9c-1.8,6.5-2.8,9.8-5.2,16.3"/>
				</g>
			</g>
		</g>
		<polygon class="st6" points="181.7,325.3 286,325.3 277,401.2 190.6,401.2 		"/>
		<polygon class="st8" points="286.9,317.3 286,325.3 181.7,325.3 180.7,317.3 		"/>
		<path class="st6" d="M313.4,306.4c0,1.4-0.3,2.8-0.8,4c-0.5,1.4-1.4,2.6-2.4,3.7c-2,2-4.7,3.2-7.7,3.2H165.2
			c-4.6,0-8.5-2.8-10.1-6.9c-0.5-1.2-0.8-2.6-0.8-4c0-3,1.2-5.7,3.2-7.7c2-2,4.7-3.2,7.7-3.2h137.3
			C308.5,295.5,313.4,300.3,313.4,306.4z"/>
	</g>
	<path class="st3" d="M136.3,401.2h66.4c0,0-6.1-29.9-22-31.5s-18.4-6.5-26.4-6.5S124.8,381.8,136.3,401.2z"/>
	<path class="st9" d="M145.5,401.2h-36.7c0,0,3.4-16.5,12.2-17.4s10.2-3.6,14.6-3.6C140,380.2,151.9,390.5,145.5,401.2z"/>
	<path class="st9" d="M268.5,401.2c0,0-1.4-30.7,17.5-32.3c18.8-1.6,21.7,13.3,31.4,13.3c9.7,0,19.4,12.9,17,19H268.5z"/>
</g>
<g id="Stars">
	<path class="st10" d="M156.7,120.7c-11.8,4.7-15.6,8.5-20.3,20.3c-4.7-11.8-8.5-15.6-20.3-20.3c11.8-4.7,15.6-8.5,20.3-20.3
		C141,112.2,144.8,116,156.7,120.7z"/>
	<path class="st10" d="M486.3,325.3c-11.8,4.7-15.6,8.5-20.3,20.3c-4.7-11.8-8.5-15.6-20.3-20.3c11.8-4.7,15.6-8.5,20.3-20.3
		C470.6,316.8,474.5,320.6,486.3,325.3z"/>
	<path class="st10" d="M60.8,270.1c-11.8,4.7-15.6,8.5-20.3,20.3c-4.7-11.8-8.5-15.6-20.3-20.3c11.8-4.7,15.6-8.5,20.3-20.3
		C45.2,261.6,49,265.4,60.8,270.1z"/>
	<path class="st10" d="M29,247.9c-5.2,2-6.8,3.7-8.9,8.9c-2-5.2-3.7-6.8-8.9-8.9c5.2-2,6.8-3.7,8.9-8.9
		C22.2,244.2,23.8,245.8,29,247.9z"/>
	<path class="st10" d="M328.5,129.3c-5.2,2-6.8,3.7-8.9,8.9c-2-5.2-3.7-6.8-8.9-8.9c5.2-2,6.8-3.7,8.9-8.9
		C321.7,125.6,323.3,127.3,328.5,129.3z"/>
	<path class="st10" d="M489.3,295.5c-5.2,2-6.8,3.7-8.9,8.9c-2-5.2-3.7-6.8-8.9-8.9c5.2-2,6.8-3.7,8.9-8.9
		C482.5,291.8,484.2,293.4,489.3,295.5z"/>
</g>
</svg>
