<?xml version="1.0" encoding="utf-8"?>
<!-- Generator: Adobe Illustrator 21.0.2, SVG Export Plug-In . SVG Version: 6.00 Build 0)  -->
<svg version="1.1" xmlns="http://www.w3.org/2000/svg" xmlns:xlink="http://www.w3.org/1999/xlink" x="0px" y="0px"
	 viewBox="0 0 300 300" style="enable-background:new 0 0 300 300;" xml:space="preserve">
<style type="text/css">
	.st0{fill:#FAE951;}
	.st1{fill:#FFB71D;}
	.st2{fill:#FED428;}
	.st3{fill:#872C0D;}
</style>
<g id="Face">
	<path class="st0" d="M178.9,34.5c12.7,3,31.8,10.1,49.8,26.8c1.7,1.6,4.4-0.5,3.2-2.5c-7.1-11.9-22.6-29.2-52.6-28.3
		C177,30.6,176.6,34,178.9,34.5z"/>
	<g>
		<path class="st1" d="M110.2,294.7C46.7,277.2,0,219.1,0,150C0,67.2,67.2,0,150,0c0.4,0,0.7,0,1.1,0
			C92,35.2-12.5,127.1,110.2,294.7z"/>
		<path class="st2" d="M300,150c0,82.8-67.2,150-150,150c-13.8,0-27.1-1.9-39.8-5.3C-12.5,127.1,92,35.2,151.1,0
			C233.4,0.6,300,67.5,300,150z"/>
		<ellipse class="st3" cx="109.3" cy="109" rx="15.7" ry="20.7"/>
	</g>
	<ellipse class="st3" cx="232.2" cy="109" rx="15.7" ry="20.7"/>
</g>
<g id="Mouth">
	<path class="st3" d="M124.5,190.6c0.3,0.2,0.6,0.5,0.9,0.8c2.7,2.9,20.2,20.3,48.3,20.3c30.7,0,41-13.7,48-20.7s16-6.7,16,0
		s-24.7,36.7-56.3,36.7c-29.7,0-52.7-11.8-68.9-28.7c-2.6-2.7-2.9-7-0.4-9.8C114.1,186.7,117.8,185.6,124.5,190.6z"/>
</g>
</svg>
